<svg xmlns="http://www.w3.org/2000/svg" xmlns:xlink="http://www.w3.org/1999/xlink" width="500" zoomAndPan="magnify" viewBox="0 0 375 374.999991" height="500" preserveAspectRatio="xMidYMid meet" version="1.0"><defs><g/><clipPath id="5236f36239"><path d="M 48.992188 173.644531 L 337.5 173.644531 L 337.5 201.355469 L 48.992188 201.355469 Z M 48.992188 173.644531 " clip-rule="nonzero"/></clipPath></defs><g fill="#ece6db" fill-opacity="1"><g transform="translate(54.593521, 238.499984)"><g><path d="M 44.851562 0 C 71.101562 0 95.550781 -15.601562 95.550781 -54.601562 C 95.550781 -88.949219 77.25 -105.300781 47.550781 -105.300781 L 9.75 -105.300781 L 9.75 0 Z M 24.75 -103.050781 L 40.648438 -103.050781 C 67.949219 -103.199219 80.550781 -88.5 80.550781 -54.601562 C 80.550781 -13.5 63.75 -2.25 38.101562 -2.25 L 24.75 -2.25 Z M 24.75 -103.050781 "/></g></g></g><g fill="#ece6db" fill-opacity="1"><g transform="translate(157.643544, 238.499984)"><g><path d="M 145.5 -105.300781 C 146.398438 -91.648438 144.148438 -76.5 138.449219 -59.851562 L 118.949219 -2.851562 L 83.699219 -105.300781 L 68.699219 -105.300781 L 80.398438 -71.398438 L 56.851562 -2.851562 L 21.601562 -105.300781 L 6.601562 -105.300781 L 42.75 0 L 57.75 0 L 81.300781 -68.550781 L 104.851562 0 L 119.851562 0 L 156 -105.300781 Z M 145.5 -105.300781 "/></g></g></g><g clip-path="url(#5236f36239)"><path fill="#272727" d="M 48.992188 173.644531 L 337.5 173.644531 L 337.5 201.355469 L 48.992188 201.355469 Z M 48.992188 173.644531 " fill-opacity="1" fill-rule="nonzero"/></g><g fill="#ece6db" fill-opacity="1"><g transform="translate(118.339634, 190.874987)"><g><path d="M 1.710938 0 L 7.070312 0 C 10.671875 0 13.246094 -2.253906 13.246094 -5.597656 C 13.246094 -8.941406 10.671875 -11.199219 7.070312 -11.199219 L 1.710938 -11.199219 C 1.777344 -10.925781 1.808594 -10.621094 1.808594 -9.871094 L 1.808594 -1.328125 C 1.808594 -0.574219 1.777344 -0.273438 1.710938 0 Z M 2.589844 -0.734375 L 2.589844 -10.476562 L 7.039062 -10.476562 C 10.09375 -10.476562 12.429688 -8.605469 12.429688 -5.597656 C 12.429688 -2.609375 10.09375 -0.734375 7.039062 -0.734375 Z M 2.589844 -0.734375 "/></g></g></g><g fill="#ece6db" fill-opacity="1"><g transform="translate(134.544187, 190.874987)"><g><path d="M 12.75 0.238281 C 13.324219 0.238281 13.773438 0.046875 14.140625 -0.351562 L 13.933594 -1.183594 C 13.582031 -0.769531 13.199219 -0.574219 12.734375 -0.574219 C 10.320312 -0.574219 12.300781 -5.472656 7.613281 -5.472656 L 7.535156 -5.472656 L 7.535156 -5.582031 L 8.878906 -5.582031 C 10.941406 -5.582031 12.335938 -6.863281 12.335938 -8.382812 C 12.335938 -10.175781 10.796875 -11.199219 8.527344 -11.199219 L 1.726562 -11.199219 C 1.757812 -10.925781 1.792969 -10.621094 1.792969 -9.871094 L 1.792969 -1.328125 C 1.792969 -0.574219 1.757812 -0.289062 1.726562 0 L 2.6875 0 C 2.625 -0.289062 2.589844 -0.574219 2.589844 -1.328125 L 2.589844 -5.199219 C 3.152344 -5.328125 5.152344 -5.359375 5.808594 -5.359375 C 12.175781 -5.359375 8.941406 0.238281 12.75 0.238281 Z M 2.589844 -5.902344 L 2.589844 -10.429688 L 8.480469 -10.429688 C 10.320312 -10.429688 11.535156 -9.597656 11.535156 -8.382812 C 11.535156 -7.136719 10.300781 -5.902344 8.320312 -5.902344 Z M 2.589844 -5.902344 "/></g></g></g><g fill="#ece6db" fill-opacity="1"><g transform="translate(150.636772, 190.874987)"><g><path d="M 1.710938 0 L 11.679688 0 L 11.902344 -0.847656 C 11.628906 -0.785156 11.328125 -0.75 10.574219 -0.75 L 2.589844 -0.75 L 2.589844 -5.277344 L 9.152344 -5.277344 C 9.902344 -5.277344 10.207031 -5.246094 10.476562 -5.183594 L 10.476562 -6.0625 C 10.207031 -6.015625 9.902344 -5.984375 9.152344 -5.984375 L 2.589844 -5.984375 L 2.589844 -10.460938 L 10.300781 -10.460938 C 11.054688 -10.460938 11.359375 -10.429688 11.628906 -10.367188 L 11.390625 -11.199219 L 1.710938 -11.199219 C 1.757812 -10.925781 1.792969 -10.621094 1.792969 -9.871094 L 1.792969 -1.328125 C 1.792969 -0.574219 1.757812 -0.273438 1.710938 0 Z M 1.710938 0 "/></g></g></g><g fill="#ece6db" fill-opacity="1"><g transform="translate(165.401672, 190.874987)"><g><path d="M 0.351562 0 L 1.390625 0 C 1.472656 -0.273438 1.601562 -0.574219 2.015625 -1.328125 L 2.976562 -3.039062 L 11.007812 -3.039062 L 11.964844 -1.328125 C 12.367188 -0.574219 12.492188 -0.273438 12.589844 0 L 13.628906 0 C 13.421875 -0.273438 13.230469 -0.574219 12.828125 -1.328125 L 8.175781 -9.902344 C 7.933594 -10.335938 7.726562 -10.765625 7.597656 -11.199219 L 6.429688 -11.199219 C 6.335938 -10.925781 6.207031 -10.621094 5.792969 -9.871094 L 1.152344 -1.328125 C 0.75 -0.574219 0.542969 -0.273438 0.351562 0 Z M 3.34375 -3.742188 L 6.0625 -8.78125 C 6.351562 -9.328125 6.640625 -9.855469 6.925781 -10.382812 L 7.023438 -10.382812 L 7.886719 -8.796875 L 10.621094 -3.742188 Z M 3.34375 -3.742188 "/></g></g></g><g fill="#ece6db" fill-opacity="1"><g transform="translate(181.254307, 190.874987)"><g><path d="M 1.710938 0 L 2.6875 0 C 2.625 -0.273438 2.589844 -0.574219 2.589844 -1.328125 L 2.589844 -9.742188 L 2.671875 -9.742188 L 8.125 0 L 8.847656 0 L 14.269531 -9.742188 L 14.382812 -9.742188 L 14.382812 -1.328125 C 14.382812 -0.574219 14.351562 -0.273438 14.285156 0 L 15.277344 0 C 15.214844 -0.273438 15.179688 -0.574219 15.179688 -1.328125 L 15.179688 -9.871094 C 15.179688 -10.621094 15.214844 -10.925781 15.277344 -11.199219 L 14.191406 -11.199219 L 10.335938 -4.289062 C 9.742188 -3.230469 9.152344 -2.160156 8.558594 -1.085938 L 8.414062 -1.085938 L 6.65625 -4.289062 L 2.816406 -11.199219 L 1.710938 -11.199219 C 1.757812 -10.925781 1.792969 -10.621094 1.792969 -9.871094 L 1.792969 -1.328125 C 1.792969 -0.574219 1.757812 -0.273438 1.710938 0 Z M 1.710938 0 "/></g></g></g><g fill="#ece6db" fill-opacity="1"><g transform="translate(200.098222, 190.874987)"><g/></g></g><g fill="#ece6db" fill-opacity="1"><g transform="translate(206.849051, 190.874987)"><g><path d="M 4.589844 0 L 5.632812 0 L 9.390625 -9.984375 L 9.488281 -9.984375 L 13.214844 0 L 14.285156 0 C 14.382812 -0.574219 14.558594 -1.136719 14.78125 -1.695312 L 17.789062 -9.871094 C 18.0625 -10.621094 18.1875 -10.925781 18.347656 -11.199219 L 17.308594 -11.199219 C 17.277344 -10.925781 17.214844 -10.621094 16.941406 -9.871094 L 14.300781 -2.71875 C 14.109375 -2.191406 13.902344 -1.679688 13.710938 -1.152344 L 13.613281 -1.152344 L 9.855469 -11.199219 L 9.007812 -11.199219 L 5.230469 -1.152344 L 5.136719 -1.152344 C 4.925781 -1.679688 4.734375 -2.207031 4.527344 -2.71875 L 1.902344 -9.871094 C 1.632812 -10.621094 1.566406 -10.925781 1.535156 -11.199219 L 0.496094 -11.199219 C 0.65625 -10.925781 0.785156 -10.621094 1.054688 -9.871094 L 4.078125 -1.679688 C 4.289062 -1.121094 4.480469 -0.59375 4.589844 0 Z M 4.589844 0 "/></g></g></g><g fill="#ece6db" fill-opacity="1"><g transform="translate(227.548522, 190.874987)"><g><path d="M 1.710938 0 L 11.679688 0 L 11.902344 -0.847656 C 11.628906 -0.785156 11.328125 -0.75 10.574219 -0.75 L 2.589844 -0.75 L 2.589844 -5.277344 L 9.152344 -5.277344 C 9.902344 -5.277344 10.207031 -5.246094 10.476562 -5.183594 L 10.476562 -6.0625 C 10.207031 -6.015625 9.902344 -5.984375 9.152344 -5.984375 L 2.589844 -5.984375 L 2.589844 -10.460938 L 10.300781 -10.460938 C 11.054688 -10.460938 11.359375 -10.429688 11.628906 -10.367188 L 11.390625 -11.199219 L 1.710938 -11.199219 C 1.757812 -10.925781 1.792969 -10.621094 1.792969 -9.871094 L 1.792969 -1.328125 C 1.792969 -0.574219 1.757812 -0.273438 1.710938 0 Z M 1.710938 0 "/></g></g></g><g fill="#ece6db" fill-opacity="1"><g transform="translate(242.313426, 190.874987)"><g><path d="M 1.710938 0 L 7.070312 0 C 10.671875 0 13.246094 -2.253906 13.246094 -5.597656 C 13.246094 -8.941406 10.671875 -11.199219 7.070312 -11.199219 L 1.710938 -11.199219 C 1.777344 -10.925781 1.808594 -10.621094 1.808594 -9.871094 L 1.808594 -1.328125 C 1.808594 -0.574219 1.777344 -0.273438 1.710938 0 Z M 2.589844 -0.734375 L 2.589844 -10.476562 L 7.039062 -10.476562 C 10.09375 -10.476562 12.429688 -8.605469 12.429688 -5.597656 C 12.429688 -2.609375 10.09375 -0.734375 7.039062 -0.734375 Z M 2.589844 -0.734375 "/></g></g></g><path stroke-linecap="butt" transform="matrix(0.75, 0, 0, 0.75, 48.991936, 186.749988)" fill="none" stroke-linejoin="miter" d="M 0.000335756 1.000016 L 41.047213 1.000016 " stroke="#ece6db" stroke-width="2" stroke-opacity="1" stroke-miterlimit="4"/><path stroke-linecap="butt" transform="matrix(0.75, 0, 0, 0.75, 296.491919, 186.749988)" fill="none" stroke-linejoin="miter" d="M 0.000357426 1.000016 L 41.047235 1.000016 " stroke="#ece6db" stroke-width="2" stroke-opacity="1" stroke-miterlimit="4"/></svg>